<?xml version="1.0" encoding="utf-8"?>
<!-- Generator: Adobe Illustrator 25.0.1, SVG Export Plug-In . SVG Version: 6.00 Build 0)  -->
<svg version="1.1" id="Layer_1" xmlns="http://www.w3.org/2000/svg" xmlns:xlink="http://www.w3.org/1999/xlink" x="0px" y="0px"
	 viewBox="0 0 512 512" style="enable-background:new 0 0 512 512;" xml:space="preserve">
<style type="text/css">
	.st0{fill:#60CE80;}
</style>
<path class="st0" d="M184.4,59.5c5.5-8.3,12.8-15.9,21.4-22.1L179.6,5.6c-5.4-6.5-15-7.4-21.6-2.1c-6.5,5.4-7.4,15-2.1,21.5
	L184.4,59.5z"/>
<path class="st0" d="M328.3,59.5L356.7,25c5.4-6.5,4.5-16.2-2.1-21.5c-6.5-5.4-16.2-4.4-21.6,2.1l-26.2,31.8
	C315.5,43.6,322.8,51.2,328.3,59.5z"/>
<path class="st0" d="M15.1,199.1c14.7,25.7,42.2,41.7,71.8,41.7h16.4c0-29.6,0-28.5,0.1-30.6c-6.5,0-10.4,0-16.5,0
	c-18,0-35.5-9.4-45.3-26.3l-10.1-17.7c-4.2-7.3-13.5-9.9-20.9-5.7c-7.3,4.2-9.9,13.5-5.7,20.9L15.1,199.1z"/>
<path class="st0" d="M409.3,240.8h16.4c29.6,0,57.2-16,71.8-41.7l10.1-17.7c4.2-7.3,1.6-16.7-5.7-20.9c-7.3-4.2-16.7-1.6-20.9,5.7
	l-10,17.7c-9.7,16.8-27.2,26.3-45.3,26.3c-6.3,0-10,0-16.5,0C409.4,212.2,409.3,210.7,409.3,240.8z"/>
<path class="st0" d="M15.1,307.6c14.7,25.7,42.2,41.7,71.8,41.7h16.4c0-11.2,0-19,0-30.6c-6.5,0-10.3,0-16.4,0
	c-18.2,0-35.7-9.7-45.3-26.3l-10.1-17.7c-4.2-7.3-13.5-9.9-20.9-5.7c-7.3,4.2-9.9,13.5-5.7,20.9L15.1,307.6z"/>
<path class="st0" d="M502,269c-7.3-4.2-16.7-1.6-20.9,5.7c-11.1,19.3-10.5,18.4-11.9,20.5l0,0c-9.6,14.5-26,23.4-43.5,23.4
	c-6.3,0-10,0-16.4,0v30.6h16.4c29.6,0,57.2-16,71.8-41.7l10.1-17.7C511.9,282.6,509.3,273.2,502,269z"/>
<path class="st0" d="M497.6,443c-14.7-25.7-42.2-41.7-71.8-41.7H409c-0.7,10.5-2.6,21-5.3,30.6h22.1c17.5,0,33.9,8.9,43.5,23.4
	c1.2,1.9,1.2,1.8,11.8,20.5c4.2,7.4,13.6,9.9,20.9,5.7c7.3-4.2,9.9-13.5,5.7-20.9L497.6,443z"/>
<path class="st0" d="M103.8,401.3H86.9c-29.6,0-57.2,16-71.8,41.7L5,460.7c-4.2,7.3-1.6,16.7,5.7,20.9c7.3,4.2,16.7,1.6,20.9-5.7
	c10.7-18.7,10.6-18.6,11.8-20.5c9.6-14.5,26-23.4,43.5-23.4H109C106.4,422.6,104.5,412.1,103.8,401.3z"/>
<path class="st0" d="M200.3,125.1h112.1v-17.4c0-30.9-25.1-56-56-56s-56,25.1-56,56L200.3,125.1L200.3,125.1z"/>
<path class="st0" d="M187.9,289.3H134v101.3c0,62.3,46.8,113.9,107.1,121.4V338.3C215.8,332.8,195.4,313.8,187.9,289.3z"/>
<path class="st0" d="M271.7,338.3V512c60.3-7.6,107.1-59.1,107.1-121.4V289.3h-53.9C317.3,313.8,297,332.8,271.7,338.3z"/>
<path class="st0" d="M320.6,155.7c-7.2,0-120.8,0-128.5,0c-32,0-58.1,26-58.1,58.1v44.8h51.5c4.8-35.1,35-61.7,70.8-61.7
	c35.9,0,66,26.7,70.8,61.7h51.5v-44.8C378.7,181.7,352.5,155.7,320.6,155.7z"/>
<path class="st0" d="M297.3,268.5c0-17.1-10.5-31.8-25.6-37.9v35c0,8.4-6.8,15.3-15.3,15.3s-15.3-6.9-15.3-15.3c0-14.3,0-20.5,0-35
	c-15,6.1-25.6,20.8-25.6,37.9c0,22.5,18.3,40.9,40.9,40.9S297.3,290.9,297.3,268.5z"/>
</svg>
