<?xml version="1.0" encoding="utf-8"?>
<!-- Generator: Adobe Illustrator 25.0.1, SVG Export Plug-In . SVG Version: 6.00 Build 0)  -->
<svg version="1.1" id="Layer_1" xmlns="http://www.w3.org/2000/svg" xmlns:xlink="http://www.w3.org/1999/xlink" x="0px" y="0px"
	 viewBox="0 0 387.7 380" style="enable-background:new 0 0 387.7 380;" xml:space="preserve">
<style type="text/css">
	.st0{fill:#60CE80;}
</style>
<g id="Layer_2_1_">
	<g id="Layer_1-2">
		<path class="st0" d="M387.7,176.7c-110.8,0-221.5,0-332.3,0.1c-3.3,0-4.7-0.9-5.9-4c-15.2-38.4-30.7-76.8-46-115.2
			C-4.3,38,1.8,17.3,18.9,6.7c12.2-7.5,25.4-9.1,38.6-2.9c28,13.3,55.8,26.8,83.6,40.3c73.9,35.8,147.8,71.5,221.8,107.2
			c11.3,5.4,19.9,13,24.8,24.5L387.7,176.7z"/>
		<path class="st0" d="M387.7,204.7c-5.2,12.4-15,19.8-26.9,25.5c-100.1,48.2-200.2,96.6-300.1,145.3c-19.7,9.6-41.9,3.4-52.5-11.6
			c-8.9-12.7-10.6-26.3-4.8-40.8c9.1-22.6,18.1-45.3,27.2-67.9c6.4-16.1,12.9-32.2,19.3-48.3c0.9-2.3,2-2.9,4.3-2.9
			c111.1,0.1,222.3,0.1,333.4,0.1V204.7z"/>
	</g>
</g>
</svg>
