<svg xmlns="http://www.w3.org/2000/svg" viewBox="0 0 239.61 133.14"><defs><style>.cls-1,.cls-4{fill:#154360;}.cls-2,.cls-5{fill:#60ce80;}.cls-3{fill:#91e8a7;}.cls-4,.cls-5{font-size:26.86px;font-family:Gotham-Black, Gotham Black;font-weight:800;}.cls-5{letter-spacing:0em;}.cls-6{letter-spacing:0em;}</style></defs><g id="Layer_2" data-name="Layer 2"><g id="Layer_1-2" data-name="Layer 1"><path class="cls-1" d="M112.3,75.33V53.07a4.53,4.53,0,0,0-4-4.57,4.41,4.41,0,0,0-4.84,4.38V75.33H77V53.07a4.53,4.53,0,0,0-4-4.57,4.41,4.41,0,0,0-4.84,4.38V75.33H57.78a7.18,7.18,0,0,1-7.18-7.18v-58A7.17,7.17,0,0,1,57.78,3h83.31V75.33Z"/><path class="cls-2" d="M162.73,35.26H189V7.18A7.17,7.17,0,0,0,181.81,0h-69.7a4.54,4.54,0,0,0-4.58,4,4.41,4.41,0,0,0,4.39,4.84h4a4.55,4.55,0,0,1,4.58,4,4.41,4.41,0,0,1-4.39,4.84H92.22a4.54,4.54,0,0,0-4.58,4A4.41,4.41,0,0,0,92,26.44h9.62a4.53,4.53,0,0,1,4.57,4,4.41,4.41,0,0,1-4.38,4.84H99.46a4.53,4.53,0,0,0-4.58,4,4.41,4.41,0,0,0,4.39,4.84h22.82a4.41,4.41,0,0,1,4.39,4.84,4.54,4.54,0,0,1-4.58,4h-.46a4.54,4.54,0,0,0-4.58,4,4.41,4.41,0,0,0,4.39,4.84h9.34a4.53,4.53,0,0,1,4.57,4,4.41,4.41,0,0,1-4.39,4.84H112.11a4.54,4.54,0,0,0-4.58,4,4.41,4.41,0,0,0,4.39,4.84h69.89A7.18,7.18,0,0,0,189,72.15V44.07H162.54a4.41,4.41,0,0,1-4.38-4.84,4.52,4.52,0,0,1,4.57-4"/><path class="cls-3" d="M130.85,37.57a.35.35,0,0,1,0-.69,4.07,4.07,0,0,0,4.07-4.06.35.35,0,0,1,.34-.35.35.35,0,0,1,.35.35,4.76,4.76,0,0,1-4.76,4.75"/><path class="cls-3" d="M114.88,7h-2.61a2.35,2.35,0,0,1-2.35-2.35.34.34,0,0,1,.34-.34.35.35,0,0,1,.35.34,1.66,1.66,0,0,0,1.66,1.66h2.61a.35.35,0,0,1,.35.35.34.34,0,0,1-.35.34"/><path class="cls-3" d="M101.75,24.6H92.49a2.35,2.35,0,0,1-2.35-2.35.34.34,0,0,1,.34-.35.35.35,0,0,1,.35.35,1.66,1.66,0,0,0,1.66,1.66h9.26a.34.34,0,0,1,.34.34.35.35,0,0,1-.34.35"/><path class="cls-3" d="M118.8,42.2H99.88a2.35,2.35,0,0,1-2.35-2.35.35.35,0,0,1,.35-.34.34.34,0,0,1,.34.34,1.66,1.66,0,0,0,1.66,1.66H118.8a.35.35,0,0,1,.35.35.35.35,0,0,1-.35.34"/><path class="cls-3" d="M130.78,77.58H112.15a2.35,2.35,0,0,1-2.35-2.35.34.34,0,0,1,.34-.34.35.35,0,0,1,.35.34,1.66,1.66,0,0,0,1.66,1.66h18.63a.35.35,0,1,1,0,.69"/><path class="cls-3" d="M132.47,72.44a.35.35,0,0,1-.35-.35.35.35,0,0,1,.35-.34,4.06,4.06,0,0,0,4.06-4.06.35.35,0,0,1,.35-.35.35.35,0,0,1,.34.35,4.75,4.75,0,0,1-4.75,4.75"/><path class="cls-1" d="M128.87,26.44h-8.54a4.41,4.41,0,1,0,0,8.82h8.54a4.41,4.41,0,0,0,0-8.82"/><path class="cls-1" d="M134.34,48.48a4.41,4.41,0,1,0,4.41-4.41,4.4,4.4,0,0,0-4.41,4.41"/><text class="cls-4" transform="translate(0 128.5)">MEDIA</text><text class="cls-5" transform="translate(90.71 128.5)">C<tspan class="cls-6" x="19.48" y="0">ANNIBAL</tspan></text></g></g></svg>